:version 1.10
:name ASF
:units
  mass 1
  length 1
  angle deg
:documentation
  ASF file generated by Kaydara
:root
  axis xyz
  order  tx ty tz rx ry rz
  position 0 0 0
  orientation 0 0 0
:bonedata
  begin
    id 1
    name RightUpLegDummy
    direction -0.65628 -0.754516 0.00165102
    length 4.76918
    axis 0 0 0 xyz
  end
  begin
    id 2
    name RightUpLeg
    direction -0.145584 -0.923362 0.355256
    length 17.9961
    axis -24.7611 -13.1006 1.78531 xyz
    dof rx ry rz
  end
  begin
    id 3
    name RightLeg
    direction 0.263379 0.172355 -0.949171
    length 13.3386
    axis 89.6202 -21.1929 12.3855 xyz
    dof rx ry rz
  end
  begin
    id 4
    name RightFoot
    direction 0.224283 -0.968777 -0.105675
    length 5.86697
    axis 56.995 -39.6905 17.3365 xyz
    dof rx ry rz
  end
  begin
    id 5
    name RightToes
    direction -0.0806345 -0.9037 0.420506
    length 4.75197
    axis 146.825 -39.7828 17.6019 xyz
    dof rx ry rz
  end
  begin
    id 6
    name SpineDummy
    direction -3.39852e-014 1 9.33296e-014
    length 8.13779
    axis 0 0 0 xyz
  end
  begin
    id 7
    name Spine
    direction -0.156609 0.733703 0.661176
    length 7.14978
    axis 41.2365 5.68757 17.0844 xyz
    dof rx ry rz
  end
  begin
    id 8
    name Spine1
    direction 0 0 0
    length 0
    axis 42.8809 47.8308 -3.36039 xyz
    dof rx ry rz
  end
  begin
    id 9
    name HEadDummy
    direction 0.546431 0.701947 0.456819
    length 3.55512
    axis 42.8809 47.8308 -3.36039 xyz
  end
  begin
    id 10
    name HEad
    direction 0.23444 0.828559 0.508457
    length 7.35827
    axis 51.1864 49.2662 27.4903 xyz
    dof rx ry rz
  end
  begin
    id 11
    name LeftShoulder1Dummy
    direction 0.431183 0.475873 -0.766568
    length 2.49352
    axis 42.8809 47.8308 -3.36039 xyz
  end
  begin
    id 12
    name LeftShoulder1
    direction 0.268187 -0.383402 -0.883786
    length 4.48604
    axis -119.517 0.106469 35.1736 xyz
    dof rx ry rz
  end
  begin
    id 13
    name LeftArm
    direction 0.380567 -0.703221 -0.600541
    length 10.1142
    axis -5.41825 36.2925 7.8293 xyz
    dof rx ry rz
  end
  begin
    id 14
    name LeftForeArm
    direction 0.541071 -0.732356 -0.413396
    length 9.39839
    axis 4.65387 33.7604 7.81644 xyz
    dof rx ry rz
  end
  begin
    id 15
    name LeftHand
    direction 0.847511 -0.389379 -0.360707
    length 3.66142
    axis 7.65593 21.1436 -24.6758 xyz
    dof rx ry rz
  end
  begin
    id 16
    name RightShoulderDummy
    direction -0.692546 0.541855 0.476208
    length 2.49352
    axis 42.8809 47.8308 -3.36039 xyz
  end
  begin
    id 17
    name RightShoulder
    direction -0.870808 -0.316653 0.376065
    length 4.48602
    axis 141.571 51.133 -100.254 xyz
    dof rx ry rz
  end
  begin
    id 18
    name RightArm
    direction 0.366897 -0.87275 0.322015
    length 10.1142
    axis 92.3258 71.2036 138.917 xyz
    dof rx ry rz
  end
  begin
    id 19
    name RightForeArm
    direction 0.702487 -0.694568 0.155197
    length 9.39835
    axis 153.863 41.5092 -176.604 xyz
    dof rx ry rz
  end
  begin
    id 20
    name RightHand
    direction 0.79502 -0.601276 0.0800636
    length 3.66142
    axis 154.247 4.59222 142.9 xyz
    dof rx ry rz
  end
  begin
    id 21
    name LeftUpLegDummy
    direction 0.65628 -0.754516 0.00165102
    length 4.76919
    axis 0 0 0 xyz
  end
  begin
    id 22
    name LeftUpLeg
    direction -0.1277 -0.689368 0.713067
    length 17.9961
    axis -48.3385 -17.8675 0.791927 xyz
    dof rx ry rz
  end
  begin
    id 23
    name LeftLeg
    direction 0.109849 -0.991246 -0.0732378
    length 13.3386
    axis -2.05791 -7.30784 1.72042 xyz
    dof rx ry rz
  end
  begin
    id 24
    name LeftFoot
    direction 0.0448355 -0.272614 0.961078
    length 5.86697
    axis -18.7733 -7.89606 10.2113 xyz
    dof rx ry rz
  end
  begin
    id 25
    name LeftToes
    direction -0.18506 0.293668 0.937823
    length 4.75197
    axis 71.2267 -7.89606 10.2113 xyz
    dof rx ry rz
  end
:hierarchy
  begin
    root RightUpLegDummy SpineDummy LeftUpLegDummy
    RightUpLegDummy RightUpLeg
    RightUpLeg RightLeg
    RightLeg RightFoot
    RightFoot RightToes
    SpineDummy Spine
    Spine Spine1
    Spine1 HEadDummy LeftShoulder1Dummy RightShoulderDummy
    HEadDummy HEad
    LeftShoulder1Dummy LeftShoulder1
    LeftShoulder1 LeftArm
    LeftArm LeftForeArm
    LeftForeArm LeftHand
    RightShoulderDummy RightShoulder
    RightShoulder RightArm
    RightArm RightForeArm
    RightForeArm RightHand
    LeftUpLegDummy LeftUpLeg
    LeftUpLeg LeftLeg
    LeftLeg LeftFoot
    LeftFoot LeftToes
  end

:SAMPLES-PER-SECOND 30
:FULLY-SPECIFIED
:DEGREES
706
root  2.78272 35.8993 -11.9446 170.067 -80.8032 175.021
RightUpLeg  29.7512 -6.72488 -1.75499
RightLeg  -79.2921 -20.9434 18.9288
RightFoot  -2.41645 5.20792 -11.325
RightToes  -1.27222e-014 -6.36111e-015 6.36111e-015
Spine  -55.7014 -17.6381 -12.601
Spine1  20.9814 -12.8583 50.4845
HEad  49.957 -66.6916 -51.1499
LeftShoulder1  6.36111e-015 -1.33558e-015 6.49777e-015
LeftArm  31.4819 16.9685 -36.8297
LeftForeArm  10.5553 -24.2316 -11.5327
LeftHand  -1.27336 -0.774561 -13.1078
RightShoulder  -4.77083e-015 -6.36111e-015 -3.18055e-015
RightArm  42.8493 -27.8668 -20.664
RightForeArm  -14.1515 -17.8151 1.43826
RightHand  1.67342 -1.47403 -9.78182
LeftUpLeg  17.5688 23.882 18.5816
LeftLeg  1.07736 4.64027 0.621426
LeftFoot  1.995 1.84734 -5.83778
LeftToes  1.27222e-014 1.09105e-011 6.96064e-012
707
root  2.23179 35.9846 -11.8807 171.099 -81.7477 175.568
RightUpLeg  29.6419 -7.0386 -1.79823
RightLeg  -80.6979 -20.3703 19.143
RightFoot  -2.04585 4.9288 -10.7567
RightToes  -1.27222e-014 -6.36111e-015 6.36111e-015
Spine  -55.9728 -17.4827 -13.0842
Spine1  20.9772 -12.3455 50.161
HEad  52.197 -68.4799 -53.2528
LeftShoulder1  6.36111e-015 -1.33558e-015 6.49777e-015
LeftArm  30.6468 19.3516 -34.2469
LeftForeArm  13.8687 -25.1926 -13.8066
LeftHand  -1.34769 -0.923397 -13.6057
RightShoulder  -4.77083e-015 -6.36111e-015 -3.18055e-015
RightArm  42.0961 -28.2552 -20.1154
RightForeArm  -13.283 -16.8626 1.658
RightHand  1.69319 -1.57027 -9.74601
LeftUpLeg  17.6145 23.8106 18.5141
LeftLeg  -2.3309 3.68218 -0.173554
LeftFoot  2.41454 1.74164 -5.43746
LeftToes  1.27222e-014 1.09105e-011 6.96064e-012
708
root  1.61162 36.0841 -11.7779 173.304 -82.5276 174.971
RightUpLeg  29.5901 -7.03758 -1.87957
RightLeg  -82.2844 -19.7091 19.3676
RightFoot  -1.54452 4.64884 -10.2452
RightToes  -1.27222e-014 -6.36111e-015 6.36111e-015
Spine  -56.0426 -17.3026 -13.5005
Spine1  20.8559 -11.8292 49.5251
HEad  53.9589 -70.3458 -55.0723
LeftShoulder1  6.36111e-015 -1.33558e-015 6.49777e-015
LeftArm  29.939 21.5247 -31.6119
LeftForeArm  17.1706 -26.1196 -15.9085
LeftHand  -1.39423 -1.00589 -13.9678
RightShoulder  -4.77083e-015 -6.36111e-015 -3.18055e-015
RightArm  41.8047 -28.6878 -19.2601
RightForeArm  -12.795 -16.2179 1.57704
RightHand  1.60169 -1.43761 -9.35776
LeftUpLeg  17.8196 23.9931 18.321
LeftLeg  -5.56728 3.13937 -0.815857
LeftFoot  3.02061 1.80486 -5.54118
LeftToes  1.27222e-014 1.09105e-011 6.96064e-012
709
root  0.913515 36.1887 -11.6366 176.577 -83.1644 173.416
RightUpLeg  29.5688 -6.85083 -2.04568
RightLeg  -84.0967 -18.9969 19.7497
RightFoot  -0.704695 4.38067 -9.89907
RightToes  -1.27222e-014 -6.36111e-015 6.36111e-015
Spine  -55.8496 -16.9449 -13.7204
Spine1  20.2702 -11.2387 48.3993
HEad  55.5039 -72.3776 -56.6017
LeftShoulder1  6.36111e-015 -1.33558e-015 6.49777e-015
LeftArm  29.9434 22.8792 -29.6235
LeftForeArm  19.3215 -26.5734 -17.2501
LeftHand  -1.39251 -0.95861 -14.1179
RightShoulder  -4.77083e-015 -6.36111e-015 -3.18055e-015
RightArm  42.1978 -29.077 -17.5728
RightForeArm  -12.9035 -16.1004 1.24143
RightHand  1.53812 -1.38616 -9.01298
LeftUpLeg  17.7303 24.9794 18.3333
LeftLeg  -7.82035 3.85526 -1.23666
LeftFoot  5.18455 1.87989 -5.44451
LeftToes  1.27222e-014 1.09105e-011 6.96064e-012
710
root  0.123461 36.2774 -11.4694 -179.666 -83.9064 171.531
RightUpLeg  29.6613 -6.72254 -2.29367
RightLeg  -86.1469 -18.1662 20.1695
RightFoot  0.273358 3.97414 -9.29767
RightToes  -1.27222e-014 -6.36111e-015 6.36111e-015
Spine  -55.4044 -16.5927 -13.9154
Spine1  19.0262 -10.6484 47.3541
HEad  56.9302 -74.5228 -57.9558
LeftShoulder1  6.36111e-015 -1.33558e-015 6.49777e-015
LeftArm  30.4781 23.5436 -28.1567
LeftForeArm  20.2357 -26.7038 -17.7558
LeftHand  -1.44497 -1.11203 -14.3123
RightShoulder  -4.77083e-015 -6.36111e-015 -3.18055e-015
RightArm  43.2643 -29.5626 -15.2511
RightForeArm  -13.3345 -16.272 0.745875
RightHand  1.56891 -1.54098 -8.95556
LeftUpLeg  16.9605 26.742 18.5632
LeftLeg  -8.38132 4.57308 -1.35742
LeftFoot  8.43567 1.73016 -4.61799
LeftToes  1.27222e-014 1.09105e-011 6.96064e-012
711
root  -0.750627 36.3436 -11.2765 -174.487 -84.6436 168.123
RightUpLeg  30.0611 -6.38845 -2.6009
RightLeg  -88.3059 -17.1822 20.3478
RightFoot  1.16747 3.38881 -8.2913
RightToes  -1.27222e-014 -6.36111e-015 6.36111e-015
Spine  -54.5795 -16.2598 -14.1995
Spine1  17.437 -10.0147 46.5095
HEad  57.3621 -76.7286 -58.5147
LeftShoulder1  6.36111e-015 -1.33558e-015 6.49777e-015
LeftArm  30.9864 23.7546 -26.9322
LeftForeArm  20.1245 -26.6787 -17.4698
LeftHand  -1.55854 -1.49157 -14.5782
RightShoulder  -4.77083e-015 -6.36111e-015 -3.18055e-015
RightArm  44.4861 -30.5781 -13.4439
RightForeArm  -13.3037 -15.9887 0.309607
RightHand  1.59734 -1.65828 -8.94715
LeftUpLeg  15.941 28.6889 18.6588
LeftLeg  -7.46166 3.95229 -1.16544
LeftFoot  10.3816 1.32435 -3.38777
LeftToes  1.27222e-014 1.09105e-011 6.96064e-012
712
root  -1.66937 36.4215 -11.0314 -166.446 -84.704 161.408
RightUpLeg  30.8393 -5.20464 -3.16384
RightLeg  -90.3489 -16.1448 20.1578
RightFoot  2.43498 2.76586 -7.40002
RightToes  -1.27222e-014 -6.36111e-015 6.36111e-015
Spine  -53.1776 -15.5313 -14.3674
Spine1  15.9913 -9.10377 44.9466
HEad  55.0077 -79.06 -56.7309
LeftShoulder1  6.36111e-015 -1.33558e-015 6.49777e-015
LeftArm  31.2074 23.2921 -26.1479
LeftForeArm  18.8963 -26.2908 -16.459
LeftHand  -1.58687 -1.60463 -14.5761
RightShoulder  -4.77083e-015 -6.36111e-015 -3.18055e-015
RightArm  45.4465 -32.3117 -12.9121
RightForeArm  -12.6108 -15.0883 0.132557
RightHand  1.55243 -1.63736 -8.67966
LeftUpLeg  15.5955 30.5427 18.4908
LeftLeg  -6.10506 2.73634 -0.926025
LeftFoot  9.61495 0.924706 -2.42086
LeftToes  1.27222e-014 1.09105e-011 6.96064e-012
713
root  -2.60806 36.5407 -10.707 -159.726 -83.5979 155.554
RightUpLeg  31.6963 -2.9768 -4.19567
RightLeg  -91.7768 -15.2638 19.3328
RightFoot  4.58074 1.92719 -6.47356
RightToes  -1.27222e-014 -6.36111e-015 6.36111e-015
Spine  -51.2941 -13.9959 -14.0645
Spine1  14.8336 -7.80214 41.8647
HEad  47.8652 -81.4102 -50.6276
LeftShoulder1  6.36111e-015 -1.33558e-015 6.49777e-015
LeftArm  31.2249 21.9747 -26.0303
LeftForeArm  16.8074 -25.3925 -15.0943
LeftHand  -1.44268 -1.16817 -14.0672
RightShoulder  -4.77083e-015 -6.36111e-015 -3.18055e-015
RightArm  46.2622 -34.532 -13.2788
RightForeArm  -11.8834 -14.2804 0.325555
RightHand  1.50957 -1.69129 -8.29981
LeftUpLeg  16.2947 32.422 18.3516
LeftLeg  -5.18569 2.43051 -0.774106
LeftFoot  7.18424 0.761657 -2.10972
LeftToes  1.27222e-014 1.09105e-011 6.96064e-012
714
root  -3.56267 36.6961 -10.3119 -158.036 -81.6432 154.559
RightUpLeg  31.9776 -0.101221 -5.41697
RightLeg  -91.8504 -14.8251 17.5812
RightFoot  7.3037 0.37054 -4.49224
RightToes  -1.27222e-014 -6.36111e-015 6.36111e-015
Spine  -49.246 -11.8793 -13.287
Spine1  13.8005 -6.36169 37.7052
HEad  34.8546 -83.2129 -39.0181
LeftShoulder1  6.36111e-015 -1.33558e-015 6.49777e-015
LeftArm  30.9853 20.2632 -26.284
LeftForeArm  14.7385 -24.3056 -13.8973
LeftHand  -1.19387 -0.432228 -13.2579
RightShoulder  -4.77083e-015 -6.36111e-015 -3.18055e-015
RightArm  47.0508 -36.8922 -14.3294
RightForeArm  -11.0382 -13.5386 1.26117
RightHand  1.52709 -1.84978 -8.15539
LeftUpLeg  17.6205 34.2916 18.5032
LeftLeg  -4.85785 3.26344 -0.675607
LeftFoot  4.83108 0.763657 -2.23256
LeftToes  1.27222e-014 1.09105e-011 6.96064e-012
715
root  -4.50838 36.8704 -9.88838 -159.312 -79.4246 156.507
RightUpLeg  31.1147 2.96642 -6.25037
RightLeg  -90.0775 -15.1013 15.6959
RightFoot  10.4086 -1.59014 -2.2225
RightToes  -1.27222e-014 -6.36111e-015 6.36111e-015
Spine  -47.2285 -10.0346 -12.5798
Spine1  12.8409 -5.22587 33.7936
HEad  20.0166 -83.82 -25.8866
LeftShoulder1  6.36111e-015 -1.33558e-015 6.49777e-015
LeftArm  30.1628 18.9401 -26.438
LeftForeArm  13.4572 -23.4816 -13.1521
LeftHand  -0.949328 0.275867 -12.5444
RightShoulder  -4.77083e-015 -6.36111e-015 -3.18055e-015
RightArm  47.5958 -39.0743 -16.9414
RightForeArm  -8.58176 -11.3472 3.51907
RightHand  1.47745 -1.8022 -7.90087
LeftUpLeg  19.1786 35.9861 18.9648
LeftLeg  -4.95913 4.35501 -0.637804
LeftFoot  3.04175 0.74415 -2.27158
LeftToes  1.27222e-014 1.09105e-011 6.96064e-012
716
root  -5.41057 37.0507 -9.47404 -161.05 -77.3161 158.71
RightUpLeg  29.1231 5.78566 -6.68239
RightLeg  -86.7088 -16.245 15.1754
RightFoot  15.083 -2.34915 -2.9831
RightToes  -1.27222e-014 -6.36111e-015 6.36111e-015
Spine  -45.3309 -9.31045 -12.5703
Spine1  12.0913 -4.71344 31.3497
HEad  11.2525 -83.1752 -19.0638
LeftShoulder1  6.36111e-015 -1.33558e-015 6.49777e-015
LeftArm  28.6899 18.2527 -26.5505
LeftForeArm  13.0649 -22.98 -12.8814
LeftHand  -0.781839 0.76597 -12.135
RightShoulder  -4.77083e-015 -6.36111e-015 -3.18055e-015
RightArm  47.6615 -40.6702 -21.1782
RightForeArm  -3.77554 -7.08316 6.93634
RightHand  1.19447 -1.43423 -6.56944
LeftUpLeg  21.0892 37.5301 19.6752
LeftLeg  -5.40068 5.13215 -0.688453
LeftFoot  1.42032 0.662042 -2.10122
LeftToes  1.27222e-014 1.09105e-011 6.96064e-012
